<svg xmlns="http://www.w3.org/2000/svg" viewBox="0 0 32 32">
  <!-- Background circle -->
  <circle cx="16" cy="16" r="15" fill="#1a1714" stroke="#c41e1e" stroke-width="1.5"/>
  <!-- Vintage race car body -->
  <path d="M5 20 L7 16 L10 14 L13 13 L16 12.5 L20 13 L24 14.5 L26 16 L27 18 L27 20 Z" fill="#c41e1e"/>
  <!-- Hood/bonnet long nose -->
  <path d="M7 16 L10 14 L13 13 L16 12.5 L16 15 L7 17.5 Z" fill="#a51a1a"/>
  <!-- Cockpit opening -->
  <path d="M17 12.5 L19 11 L22 11.5 L24 14.5 L20 13 Z" fill="#1a1714"/>
  <!-- Driver helmet -->
  <circle cx="20" cy="12" r="1.8" fill="#d4cabb"/>
  <!-- Wheels -->
  <circle cx="10" cy="20.5" r="3" fill="#1a1714" stroke="#d4cabb" stroke-width="1"/>
  <circle cx="10" cy="20.5" r="1.2" fill="#d4cabb"/>
  <circle cx="24" cy="20.5" r="3" fill="#1a1714" stroke="#d4cabb" stroke-width="1"/>
  <circle cx="24" cy="20.5" r="1.2" fill="#d4cabb"/>
  <!-- Exhaust lines (speed) -->
  <line x1="3" y1="17" x2="6" y2="17" stroke="#d4cabb" stroke-width="0.7" opacity="0.6"/>
  <line x1="2" y1="19" x2="5.5" y2="19" stroke="#d4cabb" stroke-width="0.7" opacity="0.4"/>
  <line x1="3.5" y1="15.5" x2="6" y2="15.5" stroke="#d4cabb" stroke-width="0.7" opacity="0.3"/>
</svg>
